<svg version="1.1" id="Layer_1" xmlns="http://www.w3.org/2000/svg" xmlns:xlink="http://www.w3.org/1999/xlink" x="0px" y="0px"
	 width="100%" viewBox="0 0 1186 1180" enable-background="new 0 0 1186 1180" xml:space="preserve">
<path fill="none" opacity="1.000000" stroke="none" 
	d="
M1187.000000,447.000000 
	C1187.000000,692.000000 1187.000000,936.500000 1187.000000,1181.000000 
	C791.666687,1181.000000 396.333344,1181.000000 1.000000,1181.000000 
	C1.000000,787.666687 1.000000,394.333344 1.000000,1.000000 
	C396.333344,1.000000 791.666687,1.000000 1187.000000,1.000000 
	C1187.000000,149.500000 1187.000000,298.000000 1187.000000,447.000000 
M808.042175,91.519417 
	C807.565796,91.053062 807.137451,90.521523 806.606018,90.129768 
	C784.095276,73.535606 760.627441,58.458637 735.588135,45.948681 
	C716.015991,36.170193 695.683655,28.230476 674.611877,22.338686 
	C655.373901,16.959661 635.714783,12.940307 615.807129,12.283488 
	C596.486023,11.646017 576.982666,12.311169 557.756897,14.307384 
	C541.632202,15.981614 525.517273,19.416260 509.880890,23.795567 
	C472.495239,34.266224 438.032349,51.474537 406.238129,73.546387 
	C385.698700,87.805069 365.892853,103.228249 346.617828,119.168945 
	C328.822876,133.885574 311.607941,149.411652 295.132782,165.594406 
	C255.544479,204.480118 216.412735,243.834213 177.368835,283.268677 
	C163.752487,297.021210 150.598526,311.269775 137.843460,325.826355 
	C124.431007,341.133179 111.463585,356.853729 98.816879,372.802002 
	C81.221542,394.990753 66.064667,418.850250 53.084301,444.002380 
	C41.699181,466.063385 32.625687,489.103912 26.402298,513.192993 
	C21.273354,533.045776 17.484493,553.161072 17.114393,573.695496 
	C16.854469,588.116943 17.366352,602.573120 18.109367,616.984070 
	C18.563925,625.800293 19.554403,634.670532 21.276188,643.323059 
	C24.994970,662.011047 30.087139,680.317749 36.851925,698.212280 
	C45.956951,722.297302 57.616543,745.026306 71.295807,766.746399 
	C85.698463,789.615112 101.462814,811.523132 119.349411,831.820801 
	C135.816742,850.507812 151.870285,869.617065 169.221909,887.454895 
	C202.103088,921.257446 235.740372,954.325928 269.154266,987.608276 
	C281.044586,999.451965 293.018005,1011.224243 305.279266,1022.680420 
	C319.032013,1035.530151 332.930542,1048.244019 347.185455,1060.530029 
	C358.600037,1070.368042 370.461731,1079.714355 382.446716,1088.857300 
	C402.989624,1104.528687 424.766907,1118.356323 447.713959,1130.226440 
	C473.283142,1143.453003 499.885742,1154.258789 528.207336,1159.832520 
	C544.864624,1163.110596 561.799072,1165.558594 578.722961,1166.727051 
	C593.063721,1167.717407 607.583801,1166.633911 621.994690,1165.890015 
	C630.810547,1165.435059 639.689209,1164.474365 648.331726,1162.718018 
	C670.373718,1158.239136 691.866272,1151.980591 712.728943,1143.275391 
	C734.359985,1134.249756 754.847961,1123.261230 774.630493,1110.844116 
	C802.717834,1093.213867 828.564514,1072.581055 853.504883,1050.836426 
	C867.716003,1038.446289 881.476929,1025.511475 895.005005,1012.373352 
	C912.457275,995.424194 929.585999,978.136841 946.653625,960.797852 
	C977.799744,929.156799 1009.190125,897.741211 1039.700562,865.495300 
	C1055.952881,848.318481 1070.799683,829.785034 1085.876343,811.529846 
	C1102.870361,790.952942 1117.410156,768.629395 1130.215088,745.251465 
	C1142.385620,723.031982 1152.585083,699.916809 1159.823730,675.543213 
	C1166.270020,653.837463 1170.801147,631.690796 1171.713501,609.161255 
	C1172.454956,590.853516 1171.027222,572.422302 1169.914062,554.085083 
	C1168.751709,534.936157 1163.716675,516.501221 1158.094360,498.232147 
	C1148.419189,466.793274 1133.670288,437.707031 1116.294067,409.980377 
	C1100.198486,384.297058 1081.711670,360.266602 1061.771851,337.461182 
	C1046.209351,319.662018 1030.188965,302.220581 1013.649963,285.326965 
	C984.273010,255.320084 954.396667,225.800903 924.630920,196.176529 
	C912.145020,183.749939 899.588135,171.383453 886.737854,159.337006 
	C872.277649,145.781418 857.672668,132.361450 842.708496,119.368629 
	C831.707214,109.816528 820.026794,101.046608 808.042175,91.519417 
z"/>
<path fill="#0072e4" opacity="1.000000" stroke="none" 
	d="
M808.345581,91.723763 
	C820.026794,101.046608 831.707214,109.816528 842.708496,119.368629 
	C857.672668,132.361450 872.277649,145.781418 886.737854,159.337006 
	C899.588135,171.383453 912.145020,183.749939 924.630920,196.176529 
	C954.396667,225.800903 984.273010,255.320084 1013.649963,285.326965 
	C1030.188965,302.220581 1046.209351,319.662018 1061.771851,337.461182 
	C1081.711670,360.266602 1100.198486,384.297058 1116.294067,409.980377 
	C1133.670288,437.707031 1148.419189,466.793274 1158.094360,498.232147 
	C1163.716675,516.501221 1168.751709,534.936157 1169.914062,554.085083 
	C1171.027222,572.422302 1172.454956,590.853516 1171.713501,609.161255 
	C1170.801147,631.690796 1166.270020,653.837463 1159.823730,675.543213 
	C1152.585083,699.916809 1142.385620,723.031982 1130.215088,745.251465 
	C1117.410156,768.629395 1102.870361,790.952942 1085.876343,811.529846 
	C1070.799683,829.785034 1055.952881,848.318481 1039.700562,865.495300 
	C1009.190125,897.741211 977.799744,929.156799 946.653625,960.797852 
	C929.585999,978.136841 912.457275,995.424194 895.005005,1012.373352 
	C881.476929,1025.511475 867.716003,1038.446289 853.504883,1050.836426 
	C828.564514,1072.581055 802.717834,1093.213867 774.630493,1110.844116 
	C754.847961,1123.261230 734.359985,1134.249756 712.728943,1143.275391 
	C691.866272,1151.980591 670.373718,1158.239136 648.331726,1162.718018 
	C639.689209,1164.474365 630.810547,1165.435059 621.994690,1165.890015 
	C607.583801,1166.633911 593.063721,1167.717407 578.722961,1166.727051 
	C561.799072,1165.558594 544.864624,1163.110596 528.207336,1159.832520 
	C499.885742,1154.258789 473.283142,1143.453003 447.713959,1130.226440 
	C424.766907,1118.356323 402.989624,1104.528687 382.446716,1088.857300 
	C370.461731,1079.714355 358.600037,1070.368042 347.185455,1060.530029 
	C332.930542,1048.244019 319.032013,1035.530151 305.279266,1022.680420 
	C293.018005,1011.224243 281.044586,999.451965 269.154266,987.608276 
	C235.740372,954.325928 202.103088,921.257446 169.221909,887.454895 
	C151.870285,869.617065 135.816742,850.507812 119.349411,831.820801 
	C101.462814,811.523132 85.698463,789.615112 71.295807,766.746399 
	C57.616543,745.026306 45.956951,722.297302 36.851925,698.212280 
	C30.087139,680.317749 24.994970,662.011047 21.276188,643.323059 
	C19.554403,634.670532 18.563925,625.800293 18.109367,616.984070 
	C17.366352,602.573120 16.854469,588.116943 17.114393,573.695496 
	C17.484493,553.161072 21.273354,533.045776 26.402298,513.192993 
	C32.625687,489.103912 41.699181,466.063385 53.084301,444.002380 
	C66.064667,418.850250 81.221542,394.990753 98.816879,372.802002 
	C111.463585,356.853729 124.431007,341.133179 137.843460,325.826355 
	C150.598526,311.269775 163.752487,297.021210 177.368835,283.268677 
	C216.412735,243.834213 255.544479,204.480118 295.132782,165.594406 
	C311.607941,149.411652 328.822876,133.885574 346.617828,119.168945 
	C365.892853,103.228249 385.698700,87.805069 406.238129,73.546387 
	C438.032349,51.474537 472.495239,34.266224 509.880890,23.795567 
	C525.517273,19.416260 541.632202,15.981614 557.756897,14.307384 
	C576.982666,12.311169 596.486023,11.646017 615.807129,12.283488 
	C635.714783,12.940307 655.373901,16.959661 674.611877,22.338686 
	C695.683655,28.230476 716.015991,36.170193 735.588135,45.948681 
	C760.627441,58.458637 784.095276,73.535606 806.606018,90.129768 
	C807.137451,90.521523 807.565796,91.053062 808.345581,91.723763 
M70.011971,628.250122 
	C72.905876,639.939575 75.299911,651.780762 78.791222,663.288940 
	C87.813072,693.027466 102.135696,720.304321 118.890091,746.334839 
	C134.520935,770.619751 152.409576,793.252625 171.537079,814.808777 
	C188.249268,833.643005 205.760269,851.793579 223.399979,869.773621 
	C248.958038,895.824707 274.828979,921.572571 300.799011,947.214233 
	C318.399933,964.592529 336.021576,981.983582 354.331299,998.600586 
	C371.611237,1014.283020 389.127197,1029.863892 407.785675,1043.823730 
	C426.029816,1057.473511 445.396454,1069.794800 465.102936,1081.269531 
	C484.704926,1092.683228 505.736145,1101.309814 527.730469,1107.399170 
	C548.025635,1113.017944 568.624756,1116.673828 589.671936,1116.866943 
	C600.364014,1116.965088 611.074219,1115.752686 621.766541,1114.996094 
	C637.814209,1113.860840 653.285522,1109.874756 668.569336,1105.121216 
	C699.523865,1095.493408 728.217712,1081.015503 754.686279,1062.539551 
	C774.922180,1048.414307 794.744934,1033.528687 813.545166,1017.560913 
	C833.835938,1000.327209 852.990845,981.718140 872.149963,963.200684 
	C892.158569,943.862183 911.646851,923.982544 931.242188,904.220093 
	C949.630005,885.675476 968.134766,867.234070 986.075684,848.262695 
	C1001.152161,832.320251 1015.797302,815.942078 1030.055542,799.262878 
	C1040.477051,787.072021 1050.534790,774.481995 1059.738892,761.357483 
	C1077.483398,736.054871 1093.150146,709.512085 1104.189697,680.465942 
	C1112.689941,658.101135 1118.764038,635.097168 1120.818848,611.269836 
	C1121.848999,599.324829 1121.663574,587.171265 1120.823975,575.196472 
	C1119.898438,561.995911 1118.626831,548.655334 1115.683228,535.792969 
	C1108.389160,503.921570 1095.441284,474.149750 1078.526978,446.240997 
	C1062.222778,419.338989 1043.521606,394.063202 1022.757935,370.443665 
	C1006.597412,352.060364 989.911865,334.109222 972.873169,316.534637 
	C951.531494,294.521698 929.779236,272.896851 907.859680,251.456711 
	C880.679688,224.871307 853.427368,198.346436 825.646057,172.395218 
	C812.102661,159.744019 797.498718,148.189743 782.996582,136.612793 
	C763.818054,121.302757 743.268860,107.941200 721.645813,96.351753 
	C702.347473,86.008308 682.231140,77.496414 661.098083,71.547554 
	C640.833130,65.843033 620.177490,62.338566 599.138000,62.141815 
	C587.113342,62.029369 575.067810,63.230671 563.046570,64.056252 
	C557.165222,64.460159 551.174255,64.772423 545.488586,66.167732 
	C537.017700,68.246552 528.783203,71.280380 520.430237,73.849533 
	C490.698212,82.994331 463.177460,96.892097 437.548920,114.235985 
	C419.560120,126.409714 402.148468,139.568420 385.387451,153.388947 
	C366.696533,168.800827 348.291687,184.708374 331.068451,201.722397 
	C286.764923,245.487717 243.139282,289.940308 199.354279,334.228546 
	C191.571930,342.100281 184.089951,350.300110 176.886444,358.705902 
	C165.133850,372.420074 153.634827,386.354950 142.192703,400.330872 
	C127.040672,418.838257 114.173233,438.921112 102.712509,459.853119 
	C91.723465,479.923676 82.641953,500.874481 76.494026,522.995667 
	C70.768135,543.598267 66.948105,564.564758 67.162048,585.966064 
	C67.300049,599.771362 69.001068,613.560913 70.011971,628.250122 
z"/>
<path fill="none" opacity="1.000000" stroke="none" 
	d="
M70.006783,627.803833 
	C69.001068,613.560913 67.300049,599.771362 67.162048,585.966064 
	C66.948105,564.564758 70.768135,543.598267 76.494026,522.995667 
	C82.641953,500.874481 91.723465,479.923676 102.712509,459.853119 
	C114.173233,438.921112 127.040672,418.838257 142.192703,400.330872 
	C153.634827,386.354950 165.133850,372.420074 176.886444,358.705902 
	C184.089951,350.300110 191.571930,342.100281 199.354279,334.228546 
	C243.139282,289.940308 286.764923,245.487717 331.068451,201.722397 
	C348.291687,184.708374 366.696533,168.800827 385.387451,153.388947 
	C402.148468,139.568420 419.560120,126.409714 437.548920,114.235985 
	C463.177460,96.892097 490.698212,82.994331 520.430237,73.849533 
	C528.783203,71.280380 537.017700,68.246552 545.488586,66.167732 
	C551.174255,64.772423 557.165222,64.460159 563.046570,64.056252 
	C575.067810,63.230671 587.113342,62.029369 599.138000,62.141815 
	C620.177490,62.338566 640.833130,65.843033 661.098083,71.547554 
	C682.231140,77.496414 702.347473,86.008308 721.645813,96.351753 
	C743.268860,107.941200 763.818054,121.302757 782.996582,136.612793 
	C797.498718,148.189743 812.102661,159.744019 825.646057,172.395218 
	C853.427368,198.346436 880.679688,224.871307 907.859680,251.456711 
	C929.779236,272.896851 951.531494,294.521698 972.873169,316.534637 
	C989.911865,334.109222 1006.597412,352.060364 1022.757935,370.443665 
	C1043.521606,394.063202 1062.222778,419.338989 1078.526978,446.240997 
	C1095.441284,474.149750 1108.389160,503.921570 1115.683228,535.792969 
	C1118.626831,548.655334 1119.898438,561.995911 1120.823975,575.196472 
	C1121.663574,587.171265 1121.848999,599.324829 1120.818848,611.269836 
	C1118.764038,635.097168 1112.689941,658.101135 1104.189697,680.465942 
	C1093.150146,709.512085 1077.483398,736.054871 1059.738892,761.357483 
	C1050.534790,774.481995 1040.477051,787.072021 1030.055542,799.262878 
	C1015.797302,815.942078 1001.152161,832.320251 986.075684,848.262695 
	C968.134766,867.234070 949.630005,885.675476 931.242188,904.220093 
	C911.646851,923.982544 892.158569,943.862183 872.149963,963.200684 
	C852.990845,981.718140 833.835938,1000.327209 813.545166,1017.560913 
	C794.744934,1033.528687 774.922180,1048.414307 754.686279,1062.539551 
	C728.217712,1081.015503 699.523865,1095.493408 668.569336,1105.121216 
	C653.285522,1109.874756 637.814209,1113.860840 621.766541,1114.996094 
	C611.074219,1115.752686 600.364014,1116.965088 589.671936,1116.866943 
	C568.624756,1116.673828 548.025635,1113.017944 527.730469,1107.399170 
	C505.736145,1101.309814 484.704926,1092.683228 465.102936,1081.269531 
	C445.396454,1069.794800 426.029816,1057.473511 407.785675,1043.823730 
	C389.127197,1029.863892 371.611237,1014.283020 354.331299,998.600586 
	C336.021576,981.983582 318.399933,964.592529 300.799011,947.214233 
	C274.828979,921.572571 248.958038,895.824707 223.399979,869.773621 
	C205.760269,851.793579 188.249268,833.643005 171.537079,814.808777 
	C152.409576,793.252625 134.520935,770.619751 118.890091,746.334839 
	C102.135696,720.304321 87.813072,693.027466 78.791222,663.288940 
	C75.299911,651.780762 72.905876,639.939575 70.006783,627.803833 
M960.948425,579.220642 
	C960.323730,577.213501 959.707520,575.203674 959.073059,573.199646 
	C951.527405,549.364441 941.792480,526.478943 929.901001,504.467468 
	C920.468262,487.007202 909.868408,470.299530 896.744263,455.468414 
	C881.933228,438.730988 865.243286,424.117035 844.345886,415.051636 
	C830.637390,409.104797 816.180725,406.598358 801.464722,406.192230 
	C792.745728,405.951569 783.975220,407.579498 776.155945,408.283661 
	C776.439758,397.285767 776.813904,386.433014 776.975708,375.577118 
	C777.169617,362.564117 773.317627,350.438385 768.238464,338.677124 
	C758.807983,316.840210 743.285828,299.776184 725.258179,284.796997 
	C709.308716,271.544525 692.691772,259.287018 672.837891,251.407776 
	C672.238525,251.566101 671.639221,251.724411 670.751465,251.257446 
	C668.658691,249.555801 666.822388,247.222198 664.432617,246.252487 
	C645.274963,238.478806 626.018250,230.948761 606.779907,223.374664 
	C598.991028,220.308197 591.448242,220.091644 583.186523,222.866043 
	C553.872742,232.710007 525.329102,244.173553 498.720673,260.072388 
	C479.103943,271.793549 460.720398,285.041199 445.239960,302.123688 
	C435.259369,313.137085 426.979797,325.067139 420.675415,338.556610 
	C413.939392,352.969666 411.385529,368.188812 411.163116,383.795654 
	C411.045349,392.058990 412.596497,400.346130 413.301117,407.656738 
	C402.245819,407.437531 391.215546,407.048615 380.184967,407.038239 
	C361.622559,407.020752 345.046936,413.709259 329.491180,423.102020 
	C313.586823,432.705322 300.430603,445.459320 288.643311,459.771301 
	C276.743500,474.220001 266.819031,489.919006 257.941803,506.328186 
	C245.633789,529.079041 236.334259,553.083618 228.100403,577.554993 
	C225.468002,585.378540 225.229279,592.695740 227.882507,600.716553 
	C237.804062,630.710022 249.643372,659.816101 266.023315,686.906677 
	C277.235840,705.450806 289.917419,722.813049 305.974030,737.665833 
	C317.424774,748.258240 329.953369,756.894653 343.999420,763.564697 
	C357.578674,770.012939 372.119141,772.190002 386.804718,772.777954 
	C395.643646,773.131836 404.566803,771.381470 411.998962,770.708252 
	C411.998962,782.169800 411.961365,793.745361 412.008423,805.320496 
	C412.067627,819.890991 416.624207,833.437012 423.206451,846.037354 
	C431.274475,861.481873 442.168457,874.887024 455.094208,886.864441 
	C471.714050,902.264709 490.307922,914.638428 510.017883,925.402161 
	C533.848999,938.416504 558.984741,948.489685 584.955383,956.410522 
	C588.773132,957.574951 592.877197,958.614441 596.786682,958.425598 
	C600.392944,958.251343 603.906738,956.319214 607.476562,955.210449 
	C636.409180,946.224609 664.053040,934.300537 690.201233,918.961853 
	C714.672119,904.607178 736.516785,887.200562 753.959717,864.578247 
	C775.563782,836.559387 780.952209,804.895752 775.180176,770.629883 
	C789.885071,771.954590 804.276978,773.393372 818.863403,771.119141 
	C842.141418,767.489685 861.758301,756.633484 879.023132,741.339050 
	C901.563843,721.370850 918.304810,696.872009 932.224426,670.363525 
	C943.243958,649.377930 952.260681,627.533752 959.443726,604.957092 
	C960.866211,600.486267 961.254333,595.686279 962.761719,590.730957 
	C962.119019,587.154724 961.476257,583.578491 960.948425,579.220642 
z"/>
<path fill="#0072e4" opacity="1.000000" stroke="none" 
	d="
M962.119385,591.038086 
	C961.254333,595.686279 960.866211,600.486267 959.443726,604.957092 
	C952.260681,627.533752 943.243958,649.377930 932.224426,670.363525 
	C918.304810,696.872009 901.563843,721.370850 879.023132,741.339050 
	C861.758301,756.633484 842.141418,767.489685 818.863403,771.119141 
	C804.276978,773.393372 789.885071,771.954590 775.180176,770.629883 
	C780.952209,804.895752 775.563782,836.559387 753.959717,864.578247 
	C736.516785,887.200562 714.672119,904.607178 690.201233,918.961853 
	C664.053040,934.300537 636.409180,946.224609 607.476562,955.210449 
	C603.906738,956.319214 600.392944,958.251343 596.786682,958.425598 
	C592.877197,958.614441 588.773132,957.574951 584.955383,956.410522 
	C558.984741,948.489685 533.848999,938.416504 510.017883,925.402161 
	C490.307922,914.638428 471.714050,902.264709 455.094208,886.864441 
	C442.168457,874.887024 431.274475,861.481873 423.206451,846.037354 
	C416.624207,833.437012 412.067627,819.890991 412.008423,805.320496 
	C411.961365,793.745361 411.998962,782.169800 411.998962,770.708252 
	C404.566803,771.381470 395.643646,773.131836 386.804718,772.777954 
	C372.119141,772.190002 357.578674,770.012939 343.999420,763.564697 
	C329.953369,756.894653 317.424774,748.258240 305.974030,737.665833 
	C289.917419,722.813049 277.235840,705.450806 266.023315,686.906677 
	C249.643372,659.816101 237.804062,630.710022 227.882507,600.716553 
	C225.229279,592.695740 225.468002,585.378540 228.100403,577.554993 
	C236.334259,553.083618 245.633789,529.079041 257.941803,506.328186 
	C266.819031,489.919006 276.743500,474.220001 288.643311,459.771301 
	C300.430603,445.459320 313.586823,432.705322 329.491180,423.102020 
	C345.046936,413.709259 361.622559,407.020752 380.184967,407.038239 
	C391.215546,407.048615 402.245819,407.437531 413.301117,407.656738 
	C412.596497,400.346130 411.045349,392.058990 411.163116,383.795654 
	C411.385529,368.188812 413.939392,352.969666 420.675415,338.556610 
	C426.979797,325.067139 435.259369,313.137085 445.239960,302.123688 
	C460.720398,285.041199 479.103943,271.793549 498.720673,260.072388 
	C525.329102,244.173553 553.872742,232.710007 583.186523,222.866043 
	C591.448242,220.091644 598.991028,220.308197 606.779907,223.374664 
	C626.018250,230.948761 645.274963,238.478806 664.432617,246.252487 
	C666.822388,247.222198 668.658691,249.555801 670.919922,251.882690 
	C671.500061,252.844666 671.911682,253.181381 672.323303,253.518097 
	C672.561584,252.972351 672.799927,252.426620 673.038269,251.880905 
	C692.691772,259.287018 709.308716,271.544525 725.258179,284.796997 
	C743.285828,299.776184 758.807983,316.840210 768.238464,338.677124 
	C773.317627,350.438385 777.169617,362.564117 776.975708,375.577118 
	C776.813904,386.433014 776.439758,397.285767 776.155945,408.283661 
	C783.975220,407.579498 792.745728,405.951569 801.464722,406.192230 
	C816.180725,406.598358 830.637390,409.104797 844.345886,415.051636 
	C865.243286,424.117035 881.933228,438.730988 896.744263,455.468414 
	C909.868408,470.299530 920.468262,487.007202 929.901001,504.467468 
	C941.792480,526.478943 951.527405,549.364441 959.073059,573.199646 
	C959.707520,575.203674 960.323730,577.213501 960.561523,579.654053 
	C959.569519,580.890381 958.370911,581.773499 958.466614,582.481812 
	C958.802551,584.967590 959.493347,587.422302 960.264709,589.819519 
	C960.441101,590.367859 961.478333,590.639221 962.119385,591.038086 
M627.766724,387.000000 
	C628.789001,387.000183 629.811218,387.000366 631.195190,387.702393 
	C632.480530,395.227356 633.765869,402.752350 634.917175,409.492676 
	C652.738220,416.536560 670.789612,423.671478 689.143372,430.925903 
	C698.140869,419.389801 702.738647,402.764404 703.125061,382.018005 
	C703.285767,373.387451 700.187317,366.181580 695.169556,359.887665 
	C689.579285,352.875549 683.027832,346.629700 677.396118,339.684723 
	C676.341553,338.081177 675.286987,336.477631 674.314636,334.999207 
	C676.195496,333.571991 677.839539,332.324493 679.448792,331.103394 
	C681.068420,331.762329 682.613586,332.391022 684.158813,333.019684 
	C684.447510,332.519928 684.736206,332.020203 685.024841,331.520447 
	C682.754272,330.094421 680.623474,328.329193 678.180176,327.322388 
	C674.576599,325.837524 668.391541,329.998230 667.321167,333.758575 
	C645.702759,318.130402 621.523987,307.545380 596.778137,298.121399 
	C595.199646,297.520233 592.887268,297.700195 591.315247,298.405701 
	C575.710022,305.409576 559.966492,312.159546 544.701050,319.852356 
	C526.180847,329.185364 508.951050,340.561798 495.679840,356.901855 
	C488.825195,365.341583 484.287109,374.894226 485.060699,386.147430 
	C485.362244,390.534210 486.395905,394.866302 486.980560,399.238800 
	C488.596375,411.323425 493.742218,421.921539 499.626251,431.008667 
	C518.221985,423.657043 536.291077,416.513550 554.428223,409.343231 
	C555.103638,403.454681 554.903625,396.318695 556.850281,389.826385 
	C563.788757,366.685547 584.601624,357.376709 607.046021,363.646637 
	C614.494080,365.727234 621.163025,369.608643 624.759033,377.514221 
	C622.016541,380.352631 619.158386,383.092072 616.597717,386.086029 
	C615.765259,387.059357 615.573425,388.684082 615.437866,390.045624 
	C615.415955,390.266022 617.223511,390.668549 617.657227,390.812103 
	C618.625671,388.812134 619.356262,387.303436 620.086853,385.794739 
	C622.218506,388.878296 623.027527,391.455505 623.858582,394.025604 
	C624.348206,395.539978 624.872681,397.043121 625.381409,398.551300 
	C626.696838,397.785858 628.859741,397.238159 629.125671,396.203094 
	C629.508362,394.713654 628.522644,392.866821 628.099365,391.177948 
	C627.749207,389.781219 627.367676,388.392334 627.766724,387.000000 
M376.855316,696.982483 
	C386.227417,700.313110 395.653534,698.636414 404.962128,696.921509 
	C416.588531,694.779541 427.408752,690.471863 437.292511,683.381775 
	C426.459137,665.013672 419.046997,645.656372 414.727020,625.218811 
	C384.594025,627.573792 370.607910,604.799438 369.947144,589.175171 
	C369.482422,578.186218 372.287140,568.315186 379.514771,560.078796 
	C389.306152,548.920715 402.257233,545.766052 415.007202,546.957092 
	C422.218201,529.158081 429.094574,512.185059 436.151154,494.767212 
	C427.202972,488.501587 416.400635,484.078369 404.706879,482.077667 
	C396.058594,480.597992 387.456116,478.925995 378.522736,481.697906 
	C364.248535,486.127075 354.273926,496.085510 345.576233,507.178253 
	C326.778839,531.151855 313.876831,558.444885 303.191437,586.811218 
	C302.506592,588.629395 302.994568,591.229187 303.709686,593.182495 
	C311.357910,614.073486 320.626282,634.210632 332.557007,653.033142 
	C340.193024,665.080139 348.044006,676.998718 359.464752,685.968506 
	C363.295288,688.976868 367.181091,691.914978 371.016907,695.787781 
	C371.016907,698.346008 371.016907,700.904236 371.016907,703.640198 
	C376.791016,701.947876 376.954529,701.699707 376.855316,696.982483 
M492.996643,629.458130 
	C502.379852,651.835999 516.858276,669.805481 537.837402,682.476685 
	C561.858643,696.985291 587.705017,702.254272 615.072327,696.731689 
	C637.964661,692.112061 657.908691,681.395996 673.956482,663.762512 
	C682.009705,654.913513 688.660950,645.331848 693.718018,634.600769 
	C700.506958,620.194946 703.951660,604.813232 703.781006,589.037354 
	C703.629089,575.000732 700.744019,561.286743 695.189026,548.075745 
	C685.208801,524.340759 669.015625,506.364288 646.686707,494.026886 
	C627.523376,483.438568 607.012817,478.527710 584.885864,480.893585 
	C572.917114,482.173309 561.491150,484.905640 550.534241,489.816528 
	C534.877441,496.833893 521.317932,506.649902 510.509460,520.029663 
	C501.197662,531.556702 494.118042,544.283875 489.916473,558.616821 
	C485.613190,573.296997 483.464905,588.177979 486.142944,603.294739 
	C487.664825,611.885254 490.607574,620.224060 492.996643,629.458130 
M703.099426,799.718933 
	C703.399048,798.122131 704.139404,796.462830 703.923462,794.939148 
	C702.871399,787.516541 701.769714,780.088806 700.295044,772.741333 
	C698.382446,763.211670 693.858398,754.831909 688.607849,747.135498 
	C679.455261,751.385620 670.904785,755.814453 662.002991,759.361755 
	C652.981628,762.956726 643.612915,765.680237 634.299194,768.818237 
	C632.658142,797.944336 615.136902,809.551758 594.922852,810.819702 
	C585.651611,811.401306 576.936523,808.000244 569.598694,802.030884 
	C558.904480,793.331238 554.952026,781.515625 554.848877,769.845398 
	C536.023071,762.382385 518.087830,755.272400 499.246002,747.803040 
	C496.825073,752.753235 493.148468,758.490967 491.171112,764.764282 
	C488.692352,772.628357 487.964447,781.027283 485.824310,789.019653 
	C483.525360,797.605042 485.798096,805.421204 489.492615,812.706238 
	C494.683350,822.941589 502.695496,831.123108 511.708862,838.109863 
	C536.050232,856.977844 563.491943,870.125305 592.160828,880.892273 
	C593.469116,881.383606 595.362061,881.260376 596.661072,880.690247 
	C612.302429,873.826355 628.136963,867.333862 643.414307,859.726624 
	C661.823547,850.559998 678.639343,838.883545 692.212646,823.175171 
	C697.791199,816.719116 702.317993,809.504272 703.099426,799.718933 
M817.172302,694.936035 
	C827.455261,689.086426 836.190674,681.336548 843.334106,672.032898 
	C862.184814,647.481750 875.592834,619.994568 885.961487,590.951233 
	C886.285339,590.043884 886.273926,588.798462 885.924927,587.903198 
	C882.676208,579.569580 879.754700,571.070251 875.910828,563.013794 
	C864.896301,539.928345 853.403625,517.110718 835.224976,498.486298 
	C827.939331,491.022003 819.991333,484.723724 809.951965,481.464050 
	C801.480530,478.713440 793.087952,480.811707 784.676453,481.983429 
	C772.612427,483.663879 761.998718,488.753357 752.642700,494.872345 
	C759.756287,512.326172 766.677856,529.308960 773.882935,546.987305 
	C783.992554,546.148315 794.886475,547.709778 804.169678,555.058228 
	C813.445374,562.400696 818.072815,572.287354 818.958313,583.909973 
	C819.768738,594.547241 816.312622,603.960083 809.452271,611.991028 
	C800.263245,622.747803 788.158142,626.281982 774.100281,624.859680 
	C770.099670,645.906860 761.990906,665.008240 751.776917,683.137939 
	C760.677979,690.151123 773.451355,695.081848 785.275269,697.098145 
	C795.898193,698.909729 806.326050,700.272705 817.172302,694.936035 
z"/>
<path fill="#0072e4" opacity="1.000000" stroke="none" 
	d="
M962.440552,590.884521 
	C961.478333,590.639221 960.441101,590.367859 960.264709,589.819519 
	C959.493347,587.422302 958.802551,584.967590 958.466614,582.481812 
	C958.370911,581.773499 959.569519,580.890381 960.504028,580.044800 
	C961.476257,583.578491 962.119019,587.154724 962.440552,590.884521 
z"/>
<path fill="#0072e4" opacity="1.000000" stroke="none" 
	d="
M672.938110,251.644348 
	C672.799927,252.426620 672.561584,252.972351 672.323303,253.518097 
	C671.911682,253.181381 671.500061,252.844666 671.064148,252.195343 
	C671.639221,251.724411 672.238525,251.566101 672.938110,251.644348 
z"/>
<path fill="none" opacity="1.000000" stroke="none" 
	d="
M492.953552,629.067139 
	C490.607574,620.224060 487.664825,611.885254 486.142944,603.294739 
	C483.464905,588.177979 485.613190,573.296997 489.916473,558.616821 
	C494.118042,544.283875 501.197662,531.556702 510.509460,520.029663 
	C521.317932,506.649902 534.877441,496.833893 550.534241,489.816528 
	C561.491150,484.905640 572.917114,482.173309 584.885864,480.893585 
	C607.012817,478.527710 627.523376,483.438568 646.686707,494.026886 
	C669.015625,506.364288 685.208801,524.340759 695.189026,548.075745 
	C700.744019,561.286743 703.629089,575.000732 703.781006,589.037354 
	C703.951660,604.813232 700.506958,620.194946 693.718018,634.600769 
	C688.660950,645.331848 682.009705,654.913513 673.956482,663.762512 
	C657.908691,681.395996 637.964661,692.112061 615.072327,696.731689 
	C587.705017,702.254272 561.858643,696.985291 537.837402,682.476685 
	C516.858276,669.805481 502.379852,651.835999 492.953552,629.067139 
z"/>
<path fill="none" opacity="1.000000" stroke="none" 
	d="
M703.058289,800.154785 
	C702.317993,809.504272 697.791199,816.719116 692.212646,823.175171 
	C678.639343,838.883545 661.823547,850.559998 643.414307,859.726624 
	C628.136963,867.333862 612.302429,873.826355 596.661072,880.690247 
	C595.362061,881.260376 593.469116,881.383606 592.160828,880.892273 
	C563.491943,870.125305 536.050232,856.977844 511.708862,838.109863 
	C502.695496,831.123108 494.683350,822.941589 489.492615,812.706238 
	C485.798096,805.421204 483.525360,797.605042 485.824310,789.019653 
	C487.964447,781.027283 488.692352,772.628357 491.171112,764.764282 
	C493.148468,758.490967 496.825073,752.753235 499.246002,747.803040 
	C518.087830,755.272400 536.023071,762.382385 554.848877,769.845398 
	C554.952026,781.515625 558.904480,793.331238 569.598694,802.030884 
	C576.936523,808.000244 585.651611,811.401306 594.922852,810.819702 
	C615.136902,809.551758 632.658142,797.944336 634.299194,768.818237 
	C643.612915,765.680237 652.981628,762.956726 662.002991,759.361755 
	C670.904785,755.814453 679.455261,751.385620 688.607849,747.135498 
	C693.858398,754.831909 698.382446,763.211670 700.295044,772.741333 
	C701.769714,780.088806 702.871399,787.516541 703.923462,794.939148 
	C704.139404,796.462830 703.399048,798.122131 703.058289,800.154785 
z"/>
<path fill="none" opacity="1.000000" stroke="none" 
	d="
M371.041595,694.885193 
	C367.181091,691.914978 363.295288,688.976868 359.464752,685.968506 
	C348.044006,676.998718 340.193024,665.080139 332.557007,653.033142 
	C320.626282,634.210632 311.357910,614.073486 303.709686,593.182495 
	C302.994568,591.229187 302.506592,588.629395 303.191437,586.811218 
	C313.876831,558.444885 326.778839,531.151855 345.576233,507.178253 
	C354.273926,496.085510 364.248535,486.127075 378.522736,481.697906 
	C387.456116,478.925995 396.058594,480.597992 404.706879,482.077667 
	C416.400635,484.078369 427.202972,488.501587 436.151154,494.767212 
	C429.094574,512.185059 422.218201,529.158081 415.007202,546.957092 
	C402.257233,545.766052 389.306152,548.920715 379.514771,560.078796 
	C372.287140,568.315186 369.482422,578.186218 369.947144,589.175171 
	C370.607910,604.799438 384.594025,627.573792 414.727020,625.218811 
	C419.046997,645.656372 426.459137,665.013672 437.292511,683.381775 
	C427.408752,690.471863 416.588531,694.779541 404.962128,696.921509 
	C395.653534,698.636414 386.227417,700.313110 376.269592,696.624146 
	C374.136444,695.805664 372.589020,695.345398 371.041595,694.885193 
z"/>
<path fill="none" opacity="1.000000" stroke="none" 
	d="
M816.785828,694.971497 
	C806.326050,700.272705 795.898193,698.909729 785.275269,697.098145 
	C773.451355,695.081848 760.677979,690.151123 751.776917,683.137939 
	C761.990906,665.008240 770.099670,645.906860 774.100281,624.859680 
	C788.158142,626.281982 800.263245,622.747803 809.452271,611.991028 
	C816.312622,603.960083 819.768738,594.547241 818.958313,583.909973 
	C818.072815,572.287354 813.445374,562.400696 804.169678,555.058228 
	C794.886475,547.709778 783.992554,546.148315 773.882935,546.987305 
	C766.677856,529.308960 759.756287,512.326172 752.642700,494.872345 
	C761.998718,488.753357 772.612427,483.663879 784.676453,481.983429 
	C793.087952,480.811707 801.480530,478.713440 809.951965,481.464050 
	C819.991333,484.723724 827.939331,491.022003 835.224976,498.486298 
	C853.403625,517.110718 864.896301,539.928345 875.910828,563.013794 
	C879.754700,571.070251 882.676208,579.569580 885.924927,587.903198 
	C886.273926,588.798462 886.285339,590.043884 885.961487,590.951233 
	C875.592834,619.994568 862.184814,647.481750 843.334106,672.032898 
	C836.190674,681.336548 827.455261,689.086426 816.785828,694.971497 
z"/>
<path fill="none" opacity="1.000000" stroke="none" 
	d="
M676.894775,340.050293 
	C683.027832,346.629700 689.579285,352.875549 695.169556,359.887665 
	C700.187317,366.181580 703.285767,373.387451 703.125061,382.018005 
	C702.738647,402.764404 698.140869,419.389801 689.143372,430.925903 
	C670.789612,423.671478 652.738220,416.536560 634.917175,409.492676 
	C633.765869,402.752350 632.480530,395.227356 631.075806,387.000732 
	C630.007751,384.517395 629.059082,382.735657 628.058350,380.621826 
	C627.020630,379.157532 626.034912,378.025299 625.049194,376.893097 
	C621.163025,369.608643 614.494080,365.727234 607.046021,363.646637 
	C584.601624,357.376709 563.788757,366.685547 556.850281,389.826385 
	C554.903625,396.318695 555.103638,403.454681 554.428223,409.343231 
	C536.291077,416.513550 518.221985,423.657043 499.626251,431.008667 
	C493.742218,421.921539 488.596375,411.323425 486.980560,399.238800 
	C486.395905,394.866302 485.362244,390.534210 485.060699,386.147430 
	C484.287109,374.894226 488.825195,365.341583 495.679840,356.901855 
	C508.951050,340.561798 526.180847,329.185364 544.701050,319.852356 
	C559.966492,312.159546 575.710022,305.409576 591.315247,298.405701 
	C592.887268,297.700195 595.199646,297.520233 596.778137,298.121399 
	C621.523987,307.545380 645.702759,318.130402 667.971252,333.948486 
	C671.379150,336.109009 674.136963,338.079651 676.894775,340.050293 
z"/>
<path fill="#0072e4" opacity="1.000000" stroke="none" 
	d="
M624.904114,377.203674 
	C626.034912,378.025299 627.020630,379.157532 627.737915,380.780609 
	C627.312988,383.181000 627.156494,385.090485 627.000000,387.000000 
	C627.367676,388.392334 627.749207,389.781219 628.099365,391.177948 
	C628.522644,392.866821 629.508362,394.713654 629.125671,396.203094 
	C628.859741,397.238159 626.696838,397.785858 625.381409,398.551331 
	C624.872681,397.043121 624.348206,395.539978 623.858582,394.025604 
	C623.027527,391.455505 622.218506,388.878296 620.086853,385.794739 
	C619.356262,387.303436 618.625671,388.812134 617.657227,390.812103 
	C617.223511,390.668549 615.415955,390.266022 615.437866,390.045624 
	C615.573425,388.684082 615.765259,387.059357 616.597717,386.086029 
	C619.158386,383.092072 622.016541,380.352631 624.904114,377.203674 
z"/>
<path fill="#0072e4" opacity="1.000000" stroke="none" 
	d="
M677.145447,339.867493 
	C674.136963,338.079651 671.379150,336.109009 668.311218,333.985840 
	C668.391541,329.998230 674.576599,325.837524 678.180176,327.322388 
	C680.623474,328.329193 682.754272,330.094421 685.024841,331.520447 
	C684.736206,332.020203 684.447510,332.519928 684.158813,333.019684 
	C682.613586,332.391022 681.068420,331.762329 679.448792,331.103394 
	C677.839539,332.324493 676.195496,333.571991 674.314636,334.999207 
	C675.286987,336.477631 676.341553,338.081177 677.145447,339.867493 
z"/>
<path fill="#0072e4" opacity="1.000000" stroke="none" 
	d="
M371.029236,695.336487 
	C372.589020,695.345398 374.136444,695.805664 375.859070,696.571045 
	C376.954529,701.699707 376.791016,701.947876 371.016907,703.640198 
	C371.016907,700.904236 371.016907,698.346008 371.029236,695.336487 
z"/>
<path fill="#0072e4" opacity="1.000000" stroke="none" 
	d="
M627.383301,387.000000 
	C627.156494,385.090485 627.312988,383.181000 627.789917,381.112701 
	C629.059082,382.735657 630.007751,384.517395 630.895020,386.649841 
	C629.811218,387.000366 628.789001,387.000183 627.383301,387.000000 
z"/>
</svg>